<?xml version="1.0" standalone="no"?>
<!DOCTYPE svg PUBLIC "-//W3C//DTD SVG 20010904//EN"
 "http://www.w3.org/TR/2001/REC-SVG-20010904/DTD/svg10.dtd">
<svg version="1.0" xmlns="http://www.w3.org/2000/svg"
 width="614.000000pt" height="129.000000pt" viewBox="0 0 614.000000 129.000000"
 preserveAspectRatio="xMidYMid meet">

<g transform="translate(0.000000,129.000000) scale(0.100000,-0.100000)"
fill="#000000" stroke="none">
<path d="M1000 937 c-146 -77 -103 -311 59 -324 146 -12 238 187 133 292 -57
58 -123 69 -192 32z m130 -24 c63 -57 62 -192 0 -255 -70 -69 -160 -1 -160
122 1 131 85 201 160 133z"/>
<path d="M2823 946 c-22 -10 -35 -25 -41 -48 -15 -56 5 -87 82 -129 38 -20 72
-43 77 -50 35 -55 -51 -116 -106 -76 -14 11 -17 22 -12 45 7 36 -4 47 -33 32
-26 -14 -26 -61 0 -85 12 -11 41 -20 73 -23 43 -3 58 0 87 20 80 55 62 123
-48 181 -86 45 -100 69 -62 107 24 24 63 26 84 4 20 -19 20 -29 0 -48 -14 -14
-14 -17 -1 -22 24 -9 57 14 57 40 0 52 -91 82 -157 52z"/>
<path d="M3445 946 c-94 -41 -131 -171 -74 -262 22 -36 90 -74 132 -74 101 0
186 113 163 217 -22 100 -130 159 -221 119z m99 -18 c53 -23 79 -124 56 -210
-12 -40 -60 -88 -90 -88 -67 0 -105 56 -105 155 0 119 59 180 139 143z"/>
<path d="M3700 942 c0 -4 10 -12 23 -17 21 -9 22 -17 27 -132 5 -111 7 -124
29 -147 44 -47 138 -47 185 1 24 24 26 32 27 127 1 123 8 150 37 154 12 2 20
8 17 13 -8 12 -125 12 -125 -1 0 -5 7 -10 15 -10 28 0 37 -39 33 -147 -3 -96
-5 -106 -27 -124 -33 -27 -92 -25 -119 4 -20 21 -22 34 -22 141 0 109 1 118
20 123 43 11 17 23 -50 23 -38 0 -70 -3 -70 -8z"/>
<path d="M540 931 c0 -5 9 -13 20 -16 19 -6 20 -15 20 -142 0 -126 -1 -135
-20 -140 -39 -10 -19 -23 35 -23 54 0 74 13 35 23 -19 5 -20 14 -20 121 0 64
1 116 3 116 2 0 46 -58 98 -130 51 -71 100 -130 107 -130 9 0 12 37 12 151 0
142 1 151 20 156 39 10 19 23 -35 23 -30 0 -55 -4 -55 -10 0 -5 7 -10 15 -10
26 0 36 -38 33 -131 l-3 -91 -83 109 c-45 61 -94 115 -108 121 -30 14 -74 16
-74 3z"/>
<path d="M1280 931 c0 -5 9 -13 20 -16 19 -6 20 -15 20 -142 0 -126 -1 -135
-20 -140 -39 -10 -19 -23 35 -23 54 0 74 13 35 23 -19 5 -20 14 -20 121 0 64
1 116 3 116 2 0 46 -58 98 -130 51 -71 100 -130 107 -130 9 0 12 37 12 151 0
142 1 151 20 156 39 10 19 23 -35 23 -30 0 -55 -4 -55 -10 0 -5 7 -10 15 -10
26 0 36 -38 33 -131 l-3 -91 -83 109 c-45 61 -94 115 -108 121 -30 14 -74 16
-74 3z"/>
<path d="M1770 930 c0 -5 7 -10 15 -10 26 0 35 -37 35 -145 0 -108 -9 -145
-35 -145 -8 0 -15 -4 -15 -10 0 -14 161 -13 197 1 86 32 99 117 24 149 l-30
12 26 22 c36 32 36 81 -1 113 -24 21 -37 23 -122 23 -56 0 -94 -4 -94 -10z
m174 -26 c21 -20 20 -73 -1 -96 -9 -10 -29 -18 -45 -18 -28 0 -28 0 -28 65 l0
65 29 0 c16 0 37 -7 45 -16z m29 -165 c12 -15 16 -31 12 -48 -9 -39 -29 -53
-72 -55 l-38 -1 -3 69 -3 69 43 -6 c27 -4 49 -14 61 -28z"/>
<path d="M2080 932 c0 -4 10 -12 23 -17 21 -10 22 -15 22 -140 0 -125 -1 -130
-22 -140 -40 -17 -25 -25 47 -25 67 0 93 12 50 23 -19 5 -20 14 -20 142 0 128
1 137 20 142 43 11 17 23 -50 23 -38 0 -70 -3 -70 -8z"/>
<path d="M2350 931 c0 -5 9 -13 20 -16 11 -3 20 -9 20 -13 0 -4 -24 -64 -53
-132 -37 -88 -59 -128 -75 -135 -37 -17 -25 -25 38 -25 33 0 60 4 60 10 0 6
-9 10 -20 10 -22 0 -26 23 -10 64 9 24 14 26 73 26 63 0 63 0 76 -35 13 -37 9
-55 -15 -55 -8 0 -14 -4 -14 -10 0 -6 52 -10 135 -10 122 0 168 9 115 23 -19
5 -20 14 -20 142 0 128 1 137 20 142 43 11 17 23 -50 23 -72 0 -87 -8 -47 -25
21 -9 22 -16 25 -134 3 -131 -3 -151 -43 -151 -31 0 -37 9 -90 145 -27 68 -58
130 -72 143 -24 22 -73 31 -73 13z m100 -183 c0 -4 -22 -8 -50 -8 -27 0 -50 2
-50 4 0 3 12 32 27 66 l26 61 24 -57 c12 -32 23 -61 23 -66z"/>
<path d="M3160 930 c0 -5 9 -10 19 -10 27 0 31 -18 31 -158 0 -139 -11 -196
-41 -215 -10 -6 -19 -15 -19 -19 0 -16 29 -7 58 17 40 34 52 88 52 240 0 118
1 127 20 132 43 11 17 23 -50 23 -40 0 -70 -4 -70 -10z"/>
<path d="M4070 930 c0 -5 7 -10 15 -10 26 0 35 -37 35 -145 0 -108 -9 -145
-35 -145 -8 0 -15 -4 -15 -10 0 -6 30 -10 70 -10 67 0 93 12 50 23 -17 4 -20
14 -20 66 0 54 2 61 19 61 13 0 32 -20 56 -60 43 -70 67 -90 112 -90 38 0 43
11 11 25 -13 6 -42 38 -66 73 -39 55 -42 63 -25 69 81 28 85 124 6 154 -33 12
-213 12 -213 -1z m195 -35 c50 -49 19 -115 -55 -115 l-40 0 0 63 c0 35 3 67 7
70 15 16 65 6 88 -18z"/>
<path d="M4410 932 c0 -4 10 -12 23 -17 21 -10 22 -15 22 -140 0 -124 -1 -130
-22 -141 -13 -6 -20 -14 -16 -17 10 -11 113 -8 113 3 0 6 -6 10 -14 10 -30 0
-37 27 -34 136 l3 109 98 -132 c55 -73 103 -133 108 -133 5 0 9 58 9 129 0
135 9 181 35 181 8 0 15 5 15 10 0 6 -25 10 -55 10 -54 0 -74 -13 -35 -23 18
-5 20 -14 20 -106 0 -56 -2 -101 -4 -101 -2 0 -38 45 -80 100 -42 54 -86 106
-99 115 -22 15 -87 21 -87 7z"/>
<path d="M4870 931 c0 -5 9 -13 20 -16 11 -3 20 -9 20 -13 0 -4 -24 -64 -53
-132 -37 -88 -59 -128 -75 -135 -37 -17 -25 -25 38 -25 33 0 60 4 60 10 0 6
-9 10 -20 10 -22 0 -26 23 -10 64 9 24 14 26 73 26 63 0 63 0 76 -35 13 -37 9
-55 -15 -55 -8 0 -14 -4 -14 -10 0 -5 76 -9 190 -10 204 0 197 -2 202 54 4 41
-15 43 -33 4 -12 -30 -19 -33 -60 -36 -66 -4 -70 4 -67 149 3 117 4 124 25
135 34 16 17 24 -54 24 -61 0 -84 -12 -43 -23 20 -5 20 -12 18 -144 l-3 -138
-31 -3 c-17 -2 -36 3 -41 10 -6 7 -32 67 -58 133 -27 68 -58 130 -72 143 -24
22 -73 31 -73 13z m100 -183 c0 -4 -22 -8 -50 -8 -27 0 -50 2 -50 4 0 3 12 32
27 66 l26 61 24 -57 c12 -32 23 -61 23 -66z"/>
</g>
</svg>
